<mxfile host="Electron" agent="Mozilla/5.0 (Macintosh; Intel Mac OS X 10_15_7) AppleWebKit/537.36 (KHTML, like Gecko) draw.io/24.7.5 Chrome/126.0.6478.183 Electron/31.3.0 Safari/537.36" version="24.7.5">
  <diagram name="第 1 页" id="3xTM8IKfRD4ftL0lTqM1">
    <mxGraphModel dx="1562" dy="773" grid="1" gridSize="10" guides="1" tooltips="1" connect="1" arrows="1" fold="1" page="1" pageScale="1" pageWidth="827" pageHeight="1169" math="0" shadow="0">
      <root>
        <mxCell id="0" />
        <mxCell id="1" parent="0" />
        <mxCell id="4FOrOu6t_mpuyF6xv9sM-1" value="" style="group" vertex="1" connectable="0" parent="1">
          <mxGeometry x="200" y="200" width="290" height="360" as="geometry" />
        </mxCell>
        <mxCell id="ahS78Qi3lf3_EoJ-a4fv-11" value="" style="rounded=0;whiteSpace=wrap;html=1;fontSize=24;" parent="4FOrOu6t_mpuyF6xv9sM-1" vertex="1">
          <mxGeometry width="290" height="360" as="geometry" />
        </mxCell>
        <mxCell id="ahS78Qi3lf3_EoJ-a4fv-1" value="0" style="rounded=0;whiteSpace=wrap;html=1;fontSize=24;" parent="4FOrOu6t_mpuyF6xv9sM-1" vertex="1">
          <mxGeometry x="80" y="10" width="130" height="130" as="geometry" />
        </mxCell>
        <mxCell id="ahS78Qi3lf3_EoJ-a4fv-2" value="1" style="rounded=0;whiteSpace=wrap;html=1;fontSize=24;" parent="4FOrOu6t_mpuyF6xv9sM-1" vertex="1">
          <mxGeometry x="10" y="10" width="60" height="130" as="geometry" />
        </mxCell>
        <mxCell id="ahS78Qi3lf3_EoJ-a4fv-3" value="5" style="rounded=0;whiteSpace=wrap;html=1;fontSize=24;" parent="4FOrOu6t_mpuyF6xv9sM-1" vertex="1">
          <mxGeometry x="220" y="10" width="60" height="130" as="geometry" />
        </mxCell>
        <mxCell id="ahS78Qi3lf3_EoJ-a4fv-4" value="2" style="rounded=0;whiteSpace=wrap;html=1;fontSize=24;" parent="4FOrOu6t_mpuyF6xv9sM-1" vertex="1">
          <mxGeometry x="10" y="150" width="60" height="130" as="geometry" />
        </mxCell>
        <mxCell id="ahS78Qi3lf3_EoJ-a4fv-5" value="4" style="rounded=0;whiteSpace=wrap;html=1;fontSize=24;" parent="4FOrOu6t_mpuyF6xv9sM-1" vertex="1">
          <mxGeometry x="220" y="150" width="60" height="130" as="geometry" />
        </mxCell>
        <mxCell id="ahS78Qi3lf3_EoJ-a4fv-6" value="3" style="rounded=0;whiteSpace=wrap;html=1;fontSize=24;" parent="4FOrOu6t_mpuyF6xv9sM-1" vertex="1">
          <mxGeometry x="80" y="150" width="130" height="60" as="geometry" />
        </mxCell>
        <mxCell id="ahS78Qi3lf3_EoJ-a4fv-7" value="7" style="rounded=0;whiteSpace=wrap;html=1;fontSize=24;" parent="4FOrOu6t_mpuyF6xv9sM-1" vertex="1">
          <mxGeometry x="80" y="220" width="60" height="60" as="geometry" />
        </mxCell>
        <mxCell id="ahS78Qi3lf3_EoJ-a4fv-8" value="8" style="rounded=0;whiteSpace=wrap;html=1;fontSize=24;" parent="4FOrOu6t_mpuyF6xv9sM-1" vertex="1">
          <mxGeometry x="150" y="220" width="60" height="60" as="geometry" />
        </mxCell>
        <mxCell id="ahS78Qi3lf3_EoJ-a4fv-9" value="6" style="rounded=0;whiteSpace=wrap;html=1;fontSize=24;" parent="4FOrOu6t_mpuyF6xv9sM-1" vertex="1">
          <mxGeometry x="10" y="290" width="60" height="60" as="geometry" />
        </mxCell>
        <mxCell id="ahS78Qi3lf3_EoJ-a4fv-10" value="9" style="rounded=0;whiteSpace=wrap;html=1;fontSize=24;" parent="4FOrOu6t_mpuyF6xv9sM-1" vertex="1">
          <mxGeometry x="220" y="290" width="60" height="60" as="geometry" />
        </mxCell>
      </root>
    </mxGraphModel>
  </diagram>
</mxfile>
